<?xml version="1.0" standalone="no"?>
<!DOCTYPE svg PUBLIC "-//W3C//DTD SVG 20010904//EN"
 "http://www.w3.org/TR/2001/REC-SVG-20010904/DTD/svg10.dtd">
<svg version="1.0" xmlns="http://www.w3.org/2000/svg"
 width="260.000000pt" height="260.000000pt" viewBox="0 0 260.000000 260.000000"
 preserveAspectRatio="xMidYMid meet">
<metadata>
Created by potrace 1.11, written by Peter Selinger 2001-2013
</metadata>
<g transform="translate(0.000000,260.000000) scale(0.100000,-0.100000)"
fill="#000000" stroke="none">
<path d="M0 1300 l0 -1300 1300 0 1300 0 0 1300 0 1300 -1300 0 -1300 0 0
-1300z m1563 1036 c222 -66 408 -208 545 -416 103 -155 152 -300 173 -501 34
-340 -84 -666 -324 -896 -129 -123 -240 -188 -404 -235 -68 -20 -101 -23 -253
-23 -151 0 -186 3 -253 23 -341 98 -601 375 -699 742 -26 98 -36 357 -18 468
35 223 132 412 294 581 152 156 290 234 492 276 112 23 337 14 447 -19z"/>
<path d="M1198 2020 c-124 -21 -225 -77 -319 -177 -140 -147 -209 -322 -209
-528 0 -220 83 -412 240 -558 115 -106 234 -152 395 -151 169 1 299 60 423
191 92 97 162 233 188 362 36 182 4 391 -83 541 -55 94 -192 228 -273 267
-110 53 -244 73 -362 53z"/>
</g>
</svg>
